<svg width="300" height="300" viewBox="0 0 300 300" fill="none" xmlns="http://www.w3.org/2000/svg">
<rect width="300" height="300" rx="150" fill="#0062FF"/>
<path d="M164.583 253.125L150 238.542L186.979 201.563L98.4375 113.021L61.4583 150L46.875 135.417L61.4583 120.313L46.875 105.729L68.75 83.8542L54.1667 68.75L68.75 54.1667L83.8542 68.75L105.729 46.875L120.313 61.4583L135.417 46.875L150 61.4583L113.021 98.4375L201.563 186.979L238.542 150L253.125 164.583L238.542 179.688L253.125 194.271L231.25 216.146L245.833 231.25L231.25 245.833L216.146 231.25L194.271 253.125L179.688 238.542L164.583 253.125Z" fill="white"/>
</svg>
